<svg width="104" height="28" viewBox="0 0 104 28" fill="none" xmlns="http://www.w3.org/2000/svg">
<path d="M0.558 27V23.694L17.734 2.718L18.304 4.58H0.824V0.399998H22.75V3.706L5.574 24.682L4.966 22.82H23.244V27H0.558ZM39.9364 27.38C37.8591 27.38 35.9464 27.038 34.1984 26.354C32.4504 25.67 30.9304 24.72 29.6384 23.504C28.3464 22.2627 27.3457 20.8187 26.6364 19.172C25.9271 17.5 25.5724 15.676 25.5724 13.7C25.5724 11.724 25.9271 9.91267 26.6364 8.266C27.3457 6.594 28.3464 5.15 29.6384 3.934C30.9304 2.69267 32.4504 1.73 34.1984 1.046C35.9464 0.361999 37.8464 0.0199986 39.8984 0.0199986C41.9757 0.0199986 43.8757 0.361999 45.5984 1.046C47.3464 1.73 48.8664 2.69267 50.1584 3.934C51.4504 5.15 52.4511 6.594 53.1604 8.266C53.8697 9.91267 54.2244 11.724 54.2244 13.7C54.2244 15.676 53.8697 17.5 53.1604 19.172C52.4511 20.844 51.4504 22.288 50.1584 23.504C48.8664 24.72 47.3464 25.67 45.5984 26.354C43.8757 27.038 41.9884 27.38 39.9364 27.38ZM39.8984 23.048C41.2411 23.048 42.4824 22.82 43.6224 22.364C44.7624 21.908 45.7504 21.262 46.5864 20.426C47.4224 19.5647 48.0684 18.5767 48.5244 17.462C49.0057 16.322 49.2464 15.068 49.2464 13.7C49.2464 12.332 49.0057 11.0907 48.5244 9.976C48.0684 8.836 47.4224 7.848 46.5864 7.012C45.7504 6.15067 44.7624 5.492 43.6224 5.036C42.4824 4.58 41.2411 4.352 39.8984 4.352C38.5557 4.352 37.3144 4.58 36.1744 5.036C35.0597 5.492 34.0717 6.15067 33.2104 7.012C32.3744 7.848 31.7157 8.836 31.2344 9.976C30.7784 11.0907 30.5504 12.332 30.5504 13.7C30.5504 15.0427 30.7784 16.284 31.2344 17.424C31.7157 18.564 32.3744 19.5647 33.2104 20.426C34.0464 21.262 35.0344 21.908 36.1744 22.364C37.3144 22.82 38.5557 23.048 39.8984 23.048ZM55.2658 27L66.4758 11.572V15.296L55.7978 0.399998H61.3838L69.3258 11.42L67.0458 11.458L74.9118 0.399998H80.2698L69.6678 15.03V11.458L80.9538 27H75.2538L66.8938 15.296H69.1358L60.8898 27H55.2658ZM92.6071 27.38C90.5297 27.38 88.5411 27.0887 86.6411 26.506C84.7411 25.898 83.2337 25.1253 82.1191 24.188L83.8291 20.35C84.8931 21.186 86.2104 21.8827 87.7811 22.44C89.3517 22.9973 90.9604 23.276 92.6071 23.276C94.0004 23.276 95.1277 23.124 95.9891 22.82C96.8504 22.516 97.4837 22.1107 97.8891 21.604C98.2944 21.072 98.4971 20.4767 98.4971 19.818C98.4971 19.0073 98.2057 18.3613 97.6231 17.88C97.0404 17.3733 96.2804 16.9807 95.3431 16.702C94.4311 16.398 93.4051 16.1193 92.2651 15.866C91.1504 15.6127 90.0231 15.3213 88.8831 14.992C87.7684 14.6373 86.7424 14.194 85.8051 13.662C84.8931 13.1047 84.1457 12.37 83.5631 11.458C82.9804 10.546 82.6891 9.38067 82.6891 7.962C82.6891 6.518 83.0691 5.20067 83.8291 4.01C84.6144 2.794 85.7924 1.83133 87.3631 1.122C88.9591 0.387332 90.9731 0.0199986 93.4051 0.0199986C95.0011 0.0199986 96.5844 0.222666 98.1551 0.628C99.7257 1.03333 101.094 1.616 102.259 2.376L100.701 6.214C99.5104 5.50466 98.2817 4.98533 97.0151 4.656C95.7484 4.30133 94.5324 4.124 93.3671 4.124C91.9991 4.124 90.8844 4.28866 90.0231 4.618C89.1871 4.94733 88.5664 5.378 88.1611 5.91C87.7811 6.442 87.5911 7.05 87.5911 7.734C87.5911 8.54467 87.8697 9.20333 88.4271 9.71C89.0097 10.1913 89.7571 10.5713 90.6691 10.85C91.6064 11.1287 92.6451 11.4073 93.7851 11.686C94.9251 11.9393 96.0524 12.2307 97.1671 12.56C98.3071 12.8893 99.3331 13.32 100.245 13.852C101.182 14.384 101.93 15.106 102.487 16.018C103.07 16.93 103.361 18.0827 103.361 19.476C103.361 20.8947 102.968 22.212 102.183 23.428C101.423 24.6187 100.245 25.5813 98.6491 26.316C97.0531 27.0253 95.0391 27.38 92.6071 27.38Z" fill="#002278"/>
</svg>
