<svg width="369" height="342" viewBox="0 0 369 342" fill="none" xmlns="http://www.w3.org/2000/svg">
<path d="M355.848 0H257.033V24.1997C255.42 24.1997 255.016 26.8885 255.016 28.233V145.198V167.381C255.016 178.674 244.261 189.564 238.883 193.597C209.978 217.797 150.151 268.213 142.084 276.28C134.018 284.346 132.001 297.118 132.001 302.496C133.345 313.251 143.697 335.972 174.35 340.812C181.148 341.886 187.939 341.921 194.517 341.23C217.6 338.807 238.056 327.447 246.949 320.646L307.449 272.246C315.515 265.793 330.976 260.147 337.698 258.13C346.437 256.113 364.722 246.837 367.948 225.864C371.175 204.891 361.898 178.137 357.865 167.381V145.198V28.233C357.865 26.2163 357.193 24.1997 355.848 24.1997V0Z" fill="#7BC6C6"/>
<path fill-rule="evenodd" clip-rule="evenodd" d="M255.016 28.233C255.016 26.8885 255.42 24.1997 257.033 24.1997H355.849C357.193 24.1997 357.865 26.2163 357.865 28.233V145.198V167.381C361.898 178.137 371.175 204.891 367.948 225.864C364.722 246.837 346.437 256.113 337.698 258.13C330.976 260.147 315.515 265.793 307.449 272.246L246.95 320.646C238.056 327.447 217.6 338.807 194.517 341.23C187.939 341.921 181.148 341.886 174.35 340.812C143.698 335.972 133.345 313.251 132.001 302.496C132.001 297.118 134.018 284.346 142.084 276.28C150.151 268.213 209.978 217.797 238.883 193.597C244.261 189.564 255.016 178.674 255.016 167.381V145.198V28.233Z" fill="#191E38"/>
<path d="M357.865 167.381C361.898 178.137 371.175 204.891 367.948 225.864C364.722 246.837 346.437 256.113 337.698 258.13C330.976 260.147 315.515 265.793 307.449 272.246C307.449 256.786 308.255 221.83 311.482 205.697C314.708 189.564 343.748 173.431 357.865 167.381Z" fill="#7BC6C6"/>
<path d="M174.35 340.812C143.697 335.972 133.345 313.251 132.001 302.496C132.001 297.118 134.018 284.346 142.084 276.28C147.462 277.624 161.444 283.943 174.35 298.463C187.257 312.983 193.172 333.024 194.517 341.23C187.939 341.921 181.148 341.886 174.35 340.812Z" fill="#7BC6C6"/>
<path fill-rule="evenodd" clip-rule="evenodd" d="M255.016 54.18C255.994 53.6748 257.103 53.3896 258.28 53.3896C262.211 53.3896 265.398 56.5767 265.398 60.5082C265.398 64.4397 262.211 67.6268 258.28 67.6268C257.103 67.6268 255.994 67.3415 255.016 66.8363V54.18ZM255.016 96.8917C255.994 96.3866 257.103 96.1013 258.28 96.1013C262.211 96.1013 265.398 99.2884 265.398 103.22C265.398 107.151 262.211 110.339 258.28 110.339C257.103 110.339 255.994 110.053 255.016 109.548V96.8917ZM255.016 139.603C255.994 139.098 257.103 138.813 258.28 138.813C262.211 138.813 265.398 142 265.398 145.932C265.398 149.863 262.211 153.05 258.28 153.05C257.103 153.05 255.994 152.765 255.016 152.26V145.198V139.603ZM224.664 205.524C225.653 206.747 226.246 208.304 226.246 209.999C226.246 213.931 223.059 217.118 219.127 217.118C216.991 217.118 215.075 216.177 213.771 214.688C217.529 211.523 221.184 208.448 224.664 205.524ZM201.3 225.207C202.354 224.59 203.581 224.236 204.89 224.236C208.821 224.236 212.009 227.424 212.009 231.355C212.009 235.287 208.821 238.474 204.89 238.474C200.958 238.474 197.771 235.287 197.771 231.355C197.771 229.616 198.395 228.022 199.431 226.785C200.054 226.259 200.677 225.732 201.3 225.207ZM174.547 247.903C175.707 249.17 176.415 250.858 176.415 252.711C176.415 256.642 173.228 259.83 169.297 259.83C167.047 259.83 165.041 258.786 163.736 257.156C167.112 254.255 170.745 251.146 174.547 247.903ZM165.774 338.86C165.75 338.621 165.737 338.379 165.737 338.134C165.737 334.203 168.925 331.016 172.856 331.016C176.788 331.016 179.975 334.203 179.975 338.134C179.975 339.313 179.688 340.425 179.181 341.405C177.573 341.263 175.962 341.067 174.35 340.812C171.293 340.329 168.438 339.669 165.774 338.86ZM191.494 341.494C190.957 340.494 190.653 339.349 190.653 338.134C190.653 334.203 193.84 331.016 197.771 331.016C201.703 331.016 204.89 334.203 204.89 338.134C204.89 338.627 204.84 339.107 204.745 339.572C201.415 340.297 197.996 340.865 194.517 341.23C193.514 341.336 192.506 341.424 191.494 341.494ZM215.746 336.545C216.468 333.379 219.301 331.016 222.686 331.016C224.191 331.016 225.586 331.482 226.736 332.279C223.312 333.804 219.628 335.257 215.746 336.545ZM251.177 317.264C251.166 317.103 251.161 316.942 251.161 316.779C251.161 312.847 254.348 309.66 258.28 309.66C258.986 309.66 259.669 309.763 260.313 309.955L251.177 317.264ZM270.104 302.122C267.36 301.134 265.398 298.507 265.398 295.423C265.398 291.491 268.585 288.304 272.517 288.304C276.15 288.304 279.147 291.025 279.581 294.54L270.104 302.122ZM301.591 276.932C301.206 276.055 300.991 275.086 300.991 274.067C300.991 270.135 304.178 266.948 308.11 266.948C309.882 266.948 311.503 267.596 312.749 268.667C310.789 269.818 308.985 271.018 307.449 272.246L301.591 276.932ZM338.782 257.855C337.428 256.559 336.584 254.734 336.584 252.711C336.584 248.779 339.771 245.592 343.703 245.592C347.464 245.592 350.544 248.509 350.804 252.205C346.45 255.125 342.092 256.945 338.782 257.855ZM364.946 189.911C364.348 193.238 361.439 195.762 357.94 195.762C354.009 195.762 350.822 192.575 350.822 188.643C350.822 184.712 354.009 181.525 357.94 181.525C360.129 181.525 362.088 182.513 363.393 184.067C363.927 185.945 364.45 187.9 364.946 189.911ZM357.865 153.05C353.968 153.009 350.822 149.838 350.822 145.932C350.822 142.025 353.968 138.854 357.865 138.813V145.198V153.05ZM357.865 110.338C353.968 110.298 350.822 107.126 350.822 103.22C350.822 99.3136 353.968 96.1422 357.865 96.1017V110.338ZM357.865 67.6264C353.968 67.5859 350.822 64.4145 350.822 60.5082C350.822 56.6019 353.968 53.4305 357.865 53.3899V67.6264ZM343.703 46.2709C339.771 46.2709 336.584 43.0838 336.584 39.1523C336.584 35.2208 339.771 32.0337 343.703 32.0337C347.634 32.0337 350.822 35.2208 350.822 39.1523C350.822 43.0838 347.634 46.2709 343.703 46.2709ZM318.788 46.2709C314.856 46.2709 311.669 43.0838 311.669 39.1523C311.669 35.2208 314.856 32.0337 318.788 32.0337C322.719 32.0337 325.906 35.2208 325.906 39.1523C325.906 43.0838 322.719 46.2709 318.788 46.2709ZM286.754 39.1523C286.754 43.0838 289.941 46.2709 293.873 46.2709C297.804 46.2709 300.991 43.0838 300.991 39.1523C300.991 35.2208 297.804 32.0337 293.873 32.0337C289.941 32.0337 286.754 35.2208 286.754 39.1523ZM268.957 46.2709C265.026 46.2709 261.839 43.0838 261.839 39.1523C261.839 35.2208 265.026 32.0337 268.957 32.0337C272.889 32.0337 276.076 35.2208 276.076 39.1523C276.076 43.0838 272.889 46.2709 268.957 46.2709ZM336.584 81.864C336.584 85.7955 339.771 88.9827 343.703 88.9827C347.634 88.9827 350.822 85.7955 350.822 81.864C350.822 77.9325 347.634 74.7454 343.703 74.7454C339.771 74.7454 336.584 77.9325 336.584 81.864ZM318.788 88.9827C314.856 88.9827 311.669 85.7955 311.669 81.864C311.669 77.9325 314.856 74.7454 318.788 74.7454C322.719 74.7454 325.906 77.9325 325.906 81.864C325.906 85.7955 322.719 88.9827 318.788 88.9827ZM286.754 81.864C286.754 85.7955 289.941 88.9827 293.873 88.9827C297.804 88.9827 300.991 85.7955 300.991 81.864C300.991 77.9325 297.804 74.7454 293.873 74.7454C289.941 74.7454 286.754 77.9325 286.754 81.864ZM268.957 88.9827C265.026 88.9827 261.839 85.7955 261.839 81.864C261.839 77.9325 265.026 74.7454 268.957 74.7454C272.889 74.7454 276.076 77.9325 276.076 81.864C276.076 85.7955 272.889 88.9827 268.957 88.9827ZM333.025 67.6268C329.094 67.6268 325.906 64.4397 325.906 60.5082C325.906 56.5767 329.094 53.3896 333.025 53.3896C336.957 53.3896 340.144 56.5767 340.144 60.5082C340.144 64.4397 336.957 67.6268 333.025 67.6268ZM300.991 60.5082C300.991 64.4397 304.178 67.6268 308.11 67.6268C312.041 67.6268 315.229 64.4397 315.229 60.5082C315.229 56.5767 312.041 53.3896 308.11 53.3896C304.178 53.3896 300.991 56.5767 300.991 60.5082ZM283.195 67.6268C279.263 67.6268 276.076 64.4397 276.076 60.5082C276.076 56.5767 279.263 53.3896 283.195 53.3896C287.126 53.3896 290.313 56.5767 290.313 60.5082C290.313 64.4397 287.126 67.6268 283.195 67.6268ZM325.906 103.22C325.906 107.151 329.094 110.339 333.025 110.339C336.957 110.339 340.144 107.151 340.144 103.22C340.144 99.2884 336.957 96.1013 333.025 96.1013C329.094 96.1013 325.906 99.2884 325.906 103.22ZM308.11 110.339C304.178 110.339 300.991 107.151 300.991 103.22C300.991 99.2884 304.178 96.1013 308.11 96.1013C312.041 96.1013 315.229 99.2884 315.229 103.22C315.229 107.151 312.041 110.339 308.11 110.339ZM276.076 103.22C276.076 107.151 279.263 110.339 283.195 110.339C287.126 110.339 290.313 107.151 290.313 103.22C290.313 99.2884 287.126 96.1013 283.195 96.1013C279.263 96.1013 276.076 99.2884 276.076 103.22ZM336.584 124.576C336.584 128.507 339.771 131.694 343.703 131.694C347.634 131.694 350.822 128.507 350.822 124.576C350.822 120.644 347.634 117.457 343.703 117.457C339.771 117.457 336.584 120.644 336.584 124.576ZM318.788 131.694C314.856 131.694 311.669 128.507 311.669 124.576C311.669 120.644 314.856 117.457 318.788 117.457C322.719 117.457 325.906 120.644 325.906 124.576C325.906 128.507 322.719 131.694 318.788 131.694ZM286.754 124.576C286.754 128.507 289.941 131.694 293.873 131.694C297.804 131.694 300.991 128.507 300.991 124.576C300.991 120.644 297.804 117.457 293.873 117.457C289.941 117.457 286.754 120.644 286.754 124.576ZM268.957 131.694C265.026 131.694 261.839 128.507 261.839 124.576C261.839 120.644 265.026 117.457 268.957 117.457C272.889 117.457 276.076 120.644 276.076 124.576C276.076 128.507 272.889 131.694 268.957 131.694ZM336.584 167.287C336.584 171.219 339.771 174.406 343.703 174.406C347.634 174.406 350.822 171.219 350.822 167.287C350.822 163.356 347.634 160.169 343.703 160.169C339.771 160.169 336.584 163.356 336.584 167.287ZM318.788 174.406C314.856 174.406 311.669 171.219 311.669 167.287C311.669 163.356 314.856 160.169 318.788 160.169C322.719 160.169 325.906 163.356 325.906 167.287C325.906 171.219 322.719 174.406 318.788 174.406ZM286.754 167.287C286.754 171.219 289.941 174.406 293.873 174.406C297.804 174.406 300.991 171.219 300.991 167.287C300.991 163.356 297.804 160.169 293.873 160.169C289.941 160.169 286.754 163.356 286.754 167.287ZM268.957 174.406C265.026 174.406 261.839 171.219 261.839 167.287C261.839 163.356 265.026 160.169 268.957 160.169C272.889 160.169 276.076 163.356 276.076 167.287C276.076 171.219 272.889 174.406 268.957 174.406ZM333.025 153.05C329.094 153.05 325.906 149.863 325.906 145.932C325.906 142 329.094 138.813 333.025 138.813C336.957 138.813 340.144 142 340.144 145.932C340.144 149.863 336.957 153.05 333.025 153.05ZM300.991 145.932C300.991 149.863 304.178 153.05 308.11 153.05C312.041 153.05 315.229 149.863 315.229 145.932C315.229 142 312.041 138.813 308.11 138.813C304.178 138.813 300.991 142 300.991 145.932ZM283.195 153.05C279.263 153.05 276.076 149.863 276.076 145.932C276.076 142 279.263 138.813 283.195 138.813C287.126 138.813 290.313 142 290.313 145.932C290.313 149.863 287.126 153.05 283.195 153.05ZM325.906 188.643C325.906 192.575 329.094 195.762 333.025 195.762C336.957 195.762 340.144 192.575 340.144 188.643C340.144 184.712 336.957 181.525 333.025 181.525C329.094 181.525 325.906 184.712 325.906 188.643ZM308.11 195.762C304.178 195.762 300.991 192.575 300.991 188.643C300.991 184.712 304.178 181.525 308.11 181.525C312.041 181.525 315.229 184.712 315.229 188.643C315.229 192.575 312.041 195.762 308.11 195.762ZM276.076 188.643C276.076 192.575 279.263 195.762 283.195 195.762C287.126 195.762 290.313 192.575 290.313 188.643C290.313 184.712 287.126 181.525 283.195 181.525C279.263 181.525 276.076 184.712 276.076 188.643ZM258.28 195.762C254.348 195.762 251.161 192.575 251.161 188.643C251.161 184.712 254.348 181.525 258.28 181.525C262.211 181.525 265.398 184.712 265.398 188.643C265.398 192.575 262.211 195.762 258.28 195.762ZM336.584 209.999C336.584 213.931 339.771 217.118 343.703 217.118C347.634 217.118 350.822 213.931 350.822 209.999C350.822 206.068 347.634 202.881 343.703 202.881C339.771 202.881 336.584 206.068 336.584 209.999ZM318.788 217.118C314.856 217.118 311.669 213.931 311.669 209.999C311.669 206.068 314.856 202.881 318.788 202.881C322.719 202.881 325.906 206.068 325.906 209.999C325.906 213.931 322.719 217.118 318.788 217.118ZM286.754 209.999C286.754 213.931 289.941 217.118 293.873 217.118C297.804 217.118 300.991 213.931 300.991 209.999C300.991 206.068 297.804 202.881 293.873 202.881C289.941 202.881 286.754 206.068 286.754 209.999ZM268.957 217.118C265.026 217.118 261.839 213.931 261.839 209.999C261.839 206.068 265.026 202.881 268.957 202.881C272.889 202.881 276.076 206.068 276.076 209.999C276.076 213.931 272.889 217.118 268.957 217.118ZM318.788 259.83C314.856 259.83 311.669 256.642 311.669 252.711C311.669 248.779 314.856 245.592 318.788 245.592C322.719 245.592 325.906 248.779 325.906 252.711C325.906 256.642 322.719 259.83 318.788 259.83ZM286.754 252.711C286.754 256.642 289.941 259.83 293.873 259.83C297.804 259.83 300.991 256.642 300.991 252.711C300.991 248.779 297.804 245.592 293.873 245.592C289.941 245.592 286.754 248.779 286.754 252.711ZM268.957 259.83C265.026 259.83 261.839 256.642 261.839 252.711C261.839 248.779 265.026 245.592 268.957 245.592C272.889 245.592 276.076 248.779 276.076 252.711C276.076 256.642 272.889 259.83 268.957 259.83ZM350.822 231.355C350.822 235.287 354.009 238.474 357.94 238.474C361.872 238.474 365.059 235.287 365.059 231.355C365.059 227.424 361.872 224.236 357.94 224.236C354.009 224.236 350.822 227.424 350.822 231.355ZM333.025 238.474C329.094 238.474 325.906 235.287 325.906 231.355C325.906 227.424 329.094 224.236 333.025 224.236C336.957 224.236 340.144 227.424 340.144 231.355C340.144 235.287 336.957 238.474 333.025 238.474ZM300.991 231.355C300.991 235.287 304.178 238.474 308.11 238.474C312.041 238.474 315.229 235.287 315.229 231.355C315.229 227.424 312.041 224.236 308.11 224.236C304.178 224.236 300.991 227.424 300.991 231.355ZM283.195 238.474C279.263 238.474 276.076 235.287 276.076 231.355C276.076 227.424 279.263 224.236 283.195 224.236C287.126 224.236 290.313 227.424 290.313 231.355C290.313 235.287 287.126 238.474 283.195 238.474ZM251.161 231.355C251.161 235.287 254.348 238.474 258.28 238.474C262.211 238.474 265.398 235.287 265.398 231.355C265.398 227.424 262.211 224.236 258.28 224.236C254.348 224.236 251.161 227.424 251.161 231.355ZM283.195 281.185C279.263 281.185 276.076 277.998 276.076 274.067C276.076 270.135 279.263 266.948 283.195 266.948C287.126 266.948 290.313 270.135 290.313 274.067C290.313 277.998 287.126 281.185 283.195 281.185ZM251.161 274.067C251.161 277.998 254.348 281.185 258.28 281.185C262.211 281.185 265.398 277.998 265.398 274.067C265.398 270.135 262.211 266.948 258.28 266.948C254.348 266.948 251.161 270.135 251.161 274.067ZM229.805 238.474C225.874 238.474 222.686 235.287 222.686 231.355C222.686 227.424 225.874 224.236 229.805 224.236C233.737 224.236 236.924 227.424 236.924 231.355C236.924 235.287 233.737 238.474 229.805 238.474ZM244.042 217.118C240.111 217.118 236.924 213.931 236.924 209.999C236.924 206.068 240.111 202.881 244.042 202.881C247.974 202.881 251.161 206.068 251.161 209.999C251.161 213.931 247.974 217.118 244.042 217.118ZM244.042 259.83C240.111 259.83 236.924 256.642 236.924 252.711C236.924 248.779 240.111 245.592 244.042 245.592C247.974 245.592 251.161 248.779 251.161 252.711C251.161 256.642 247.974 259.83 244.042 259.83ZM212.009 252.711C212.009 256.642 215.196 259.83 219.127 259.83C223.059 259.83 226.246 256.642 226.246 252.711C226.246 248.779 223.059 245.592 219.127 245.592C215.196 245.592 212.009 248.779 212.009 252.711ZM194.212 259.83C190.28 259.83 187.093 256.642 187.093 252.711C187.093 248.779 190.28 245.592 194.212 245.592C198.143 245.592 201.331 248.779 201.331 252.711C201.331 256.642 198.143 259.83 194.212 259.83ZM233.364 281.185C229.433 281.185 226.246 277.998 226.246 274.067C226.246 270.135 229.433 266.948 233.364 266.948C237.296 266.948 240.483 270.135 240.483 274.067C240.483 277.998 237.296 281.185 233.364 281.185ZM201.331 274.067C201.331 277.998 204.518 281.185 208.449 281.185C212.381 281.185 215.568 277.998 215.568 274.067C215.568 270.135 212.381 266.948 208.449 266.948C204.518 266.948 201.331 270.135 201.331 274.067ZM183.534 281.185C179.603 281.185 176.415 277.998 176.415 274.067C176.415 270.135 179.603 266.948 183.534 266.948C187.466 266.948 190.653 270.135 190.653 274.067C190.653 277.998 187.466 281.185 183.534 281.185ZM151.5 274.067C151.5 277.998 154.687 281.185 158.619 281.185C162.55 281.185 165.737 277.998 165.737 274.067C165.737 270.135 162.55 266.948 158.619 266.948C154.687 266.948 151.5 270.135 151.5 274.067ZM233.364 323.897C229.433 323.897 226.246 320.71 226.246 316.779C226.246 312.847 229.433 309.66 233.364 309.66C237.296 309.66 240.483 312.847 240.483 316.779C240.483 320.71 237.296 323.897 233.364 323.897ZM201.331 316.779C201.331 320.71 204.518 323.897 208.449 323.897C212.381 323.897 215.568 320.71 215.568 316.779C215.568 312.847 212.381 309.66 208.449 309.66C204.518 309.66 201.331 312.847 201.331 316.779ZM183.534 323.897C179.603 323.897 176.415 320.71 176.415 316.779C176.415 312.847 179.603 309.66 183.534 309.66C187.466 309.66 190.653 312.847 190.653 316.779C190.653 320.71 187.466 323.897 183.534 323.897ZM151.5 316.779C151.5 320.71 154.687 323.897 158.619 323.897C162.55 323.897 165.737 320.71 165.737 316.779C165.737 312.847 162.55 309.66 158.619 309.66C154.687 309.66 151.5 312.847 151.5 316.779ZM247.602 302.541C243.67 302.541 240.483 299.354 240.483 295.423C240.483 291.491 243.67 288.304 247.602 288.304C251.533 288.304 254.72 291.491 254.72 295.423C254.72 299.354 251.533 302.541 247.602 302.541ZM215.568 295.423C215.568 299.354 218.755 302.541 222.686 302.541C226.618 302.541 229.805 299.354 229.805 295.423C229.805 291.491 226.618 288.304 222.686 288.304C218.755 288.304 215.568 291.491 215.568 295.423ZM197.771 302.541C193.84 302.541 190.653 299.354 190.653 295.423C190.653 291.491 193.84 288.304 197.771 288.304C201.703 288.304 204.89 291.491 204.89 295.423C204.89 299.354 201.703 302.541 197.771 302.541ZM165.737 295.423C165.737 299.354 168.925 302.541 172.856 302.541C176.788 302.541 179.975 299.354 179.975 295.423C179.975 291.491 176.788 288.304 172.856 288.304C168.925 288.304 165.737 291.491 165.737 295.423ZM147.941 302.541C144.009 302.541 140.822 299.354 140.822 295.423C140.822 291.491 144.009 288.304 147.941 288.304C151.872 288.304 155.06 291.491 155.06 295.423C155.06 299.354 151.872 302.541 147.941 302.541Z" fill="#7BC6C6"/>
<path d="M174.915 0H97.7002V18.9097C96.4398 18.9097 96.1243 21.0107 96.124 22.0613V113.458V130.792C96.124 139.616 87.7197 148.126 83.5176 151.277C60.931 170.187 14.1821 209.582 7.87892 215.885C1.5757 222.189 -0.000106812 232.169 -0.000106812 236.371C1.05043 244.775 9.13956 262.529 33.0918 266.311C38.4035 267.15 43.71 267.177 48.8498 266.638C66.8872 264.745 82.8715 255.867 89.8208 250.553L137.095 212.734C143.398 207.691 155.479 203.279 160.732 201.703C167.561 200.127 181.848 192.879 184.369 176.49C186.891 160.102 179.642 139.196 176.49 130.792V113.458V22.0613C176.49 20.4855 175.965 18.9097 174.915 18.9097V0Z" fill="#7BC6C6"/>
<path fill-rule="evenodd" clip-rule="evenodd" d="M96.1241 22.0613C96.1243 21.0107 96.4398 18.9097 97.7002 18.9097H174.915C175.965 18.9097 176.49 20.4855 176.49 22.0613V113.458V130.792C179.642 139.196 186.891 160.102 184.37 176.49C181.848 192.879 167.561 200.127 160.732 201.703C155.479 203.279 143.398 207.691 137.095 212.734L89.8208 250.553C82.8715 255.867 66.8872 264.745 48.8498 266.638C43.71 267.177 38.4035 267.15 33.0918 266.311C9.13958 262.529 1.05044 244.775 -9.85809e-05 236.371C-9.85809e-05 232.169 1.57571 222.189 7.87893 215.885C14.1822 209.582 60.9311 170.187 83.5176 151.277C87.7198 148.126 96.1241 139.616 96.1241 130.792V113.458V22.0613Z" fill="#191E38"/>
<path d="M176.49 130.792C179.642 139.196 186.891 160.102 184.369 176.49C181.848 192.879 167.561 200.127 160.732 201.703C155.479 203.279 143.398 207.691 137.095 212.734C137.095 200.653 137.725 173.339 140.247 160.732C142.768 148.126 165.459 135.519 176.49 130.792Z" fill="#7BC6C6"/>
<path d="M33.0918 266.311C9.13956 262.529 1.05043 244.775 -0.000111333 236.371C-0.000111333 232.169 1.57569 222.189 7.87892 215.885C12.0811 216.936 23.0066 221.873 33.0918 233.219C43.177 244.565 47.7993 260.226 48.8498 266.638C43.71 267.177 38.4035 267.15 33.0918 266.311Z" fill="#7BC6C6"/>
<path fill-rule="evenodd" clip-rule="evenodd" d="M96.1239 42.3364C96.8878 41.9417 97.7549 41.7188 98.6741 41.7188C101.746 41.7188 104.237 44.2092 104.237 47.2812C104.237 50.3533 101.746 52.8438 98.6741 52.8438C97.7549 52.8438 96.8878 52.6208 96.1239 52.2261V42.3364ZM96.1239 75.7114C96.8878 75.3167 97.7549 75.0938 98.6741 75.0938C101.746 75.0938 104.237 77.5842 104.237 80.6562C104.237 83.7283 101.746 86.2188 98.6741 86.2188C97.7549 86.2188 96.8878 85.9958 96.1239 85.6011V75.7114ZM96.1239 109.086C96.8878 108.692 97.7549 108.469 98.6741 108.469C101.746 108.469 104.237 110.959 104.237 114.031C104.237 117.103 101.746 119.594 98.6741 119.594C97.7549 119.594 96.8878 119.371 96.1239 118.976V113.458V109.086ZM72.4065 160.597C73.1797 161.552 73.6428 162.769 73.6428 164.094C73.6428 167.166 71.1524 169.656 68.0803 169.656C66.4114 169.656 64.9142 168.921 63.8946 167.757C66.831 165.284 69.6876 162.881 72.4065 160.597ZM54.149 175.977C54.9728 175.495 55.9318 175.219 56.9553 175.219C60.0274 175.219 62.5178 177.709 62.5178 180.781C62.5178 183.853 60.0274 186.344 56.9553 186.344C53.8832 186.344 51.3928 183.853 51.3928 180.781C51.3928 179.422 51.8806 178.176 52.6907 177.21C53.1771 176.799 53.6633 176.388 54.149 175.977ZM33.2449 193.712C34.1519 194.702 34.7053 196.021 34.7053 197.469C34.7053 200.541 32.2149 203.031 29.1428 203.031C27.3848 203.031 25.8172 202.216 24.7979 200.942C27.4356 198.675 30.2741 196.246 33.2449 193.712ZM26.3901 264.786C26.3712 264.599 26.3616 264.41 26.3616 264.219C26.3616 261.147 28.852 258.656 31.9241 258.656C34.9962 258.656 37.4866 261.147 37.4866 264.219C37.4866 265.14 37.2626 266.009 36.8663 266.774C35.6098 266.663 34.3509 266.51 33.0917 266.311C30.703 265.934 28.472 265.418 26.3901 264.786ZM46.4876 266.844C46.0682 266.062 45.8303 265.168 45.8303 264.219C45.8303 261.147 48.3207 258.656 51.3928 258.656C54.4649 258.656 56.9553 261.147 56.9553 264.219C56.9553 264.603 56.9163 264.979 56.8419 265.342C54.2404 265.908 51.5684 266.352 48.8497 266.638C48.066 266.72 47.2785 266.789 46.4876 266.844ZM65.4383 262.977C66.0027 260.502 68.2165 258.656 70.8616 258.656C72.0369 258.656 73.1272 259.021 74.0253 259.643C71.3499 260.835 68.4716 261.97 65.4383 262.977ZM93.1243 247.91C93.1159 247.785 93.1116 247.659 93.1116 247.531C93.1116 244.459 95.602 241.969 98.6741 241.969C99.2262 241.969 99.7596 242.049 100.263 242.199L93.1243 247.91ZM107.914 236.079C105.77 235.306 104.237 233.254 104.237 230.844C104.237 227.772 106.727 225.281 109.799 225.281C112.638 225.281 114.98 227.407 115.319 230.154L107.914 236.079ZM132.518 216.395C132.216 215.71 132.049 214.953 132.049 214.156C132.049 211.084 134.539 208.594 137.612 208.594C138.996 208.594 140.263 209.1 141.237 209.937C139.705 210.836 138.295 211.773 137.095 212.734L132.518 216.395ZM161.579 201.488C160.521 200.476 159.862 199.049 159.862 197.469C159.862 194.397 162.352 191.906 165.424 191.906C168.363 191.906 170.77 194.186 170.973 197.073C167.571 199.355 164.165 200.777 161.579 201.488ZM182.024 148.397C181.556 150.996 179.283 152.969 176.549 152.969C173.477 152.969 170.987 150.478 170.987 147.406C170.987 144.334 173.477 141.844 176.549 141.844C178.26 141.844 179.79 142.616 180.81 143.831C181.227 145.298 181.636 146.825 182.024 148.397ZM176.49 119.593C173.445 119.562 170.987 117.084 170.987 114.031C170.987 110.979 173.445 108.501 176.49 108.469V113.458V119.593ZM176.49 86.2184C173.445 86.1867 170.987 83.7086 170.987 80.6562C170.987 77.6039 173.445 75.1258 176.49 75.0941V86.2184ZM176.49 52.8434C173.445 52.8118 170.987 50.3336 170.987 47.2812C170.987 44.2289 173.445 41.7507 176.49 41.7191V52.8434ZM165.424 36.1562C162.352 36.1562 159.862 33.6658 159.862 30.5938C159.862 27.5217 162.352 25.0312 165.424 25.0312C168.496 25.0312 170.987 27.5217 170.987 30.5938C170.987 33.6658 168.496 36.1562 165.424 36.1562ZM145.955 36.1562C142.883 36.1562 140.393 33.6658 140.393 30.5938C140.393 27.5217 142.883 25.0312 145.955 25.0312C149.027 25.0312 151.518 27.5217 151.518 30.5938C151.518 33.6658 149.027 36.1562 145.955 36.1562ZM120.924 30.5938C120.924 33.6658 123.414 36.1562 126.487 36.1562C129.559 36.1562 132.049 33.6658 132.049 30.5938C132.049 27.5217 129.559 25.0312 126.487 25.0312C123.414 25.0312 120.924 27.5217 120.924 30.5938ZM107.018 36.1562C103.946 36.1562 101.455 33.6658 101.455 30.5938C101.455 27.5217 103.946 25.0312 107.018 25.0312C110.09 25.0312 112.58 27.5217 112.58 30.5938C112.58 33.6658 110.09 36.1562 107.018 36.1562ZM159.862 63.9688C159.862 67.0408 162.352 69.5312 165.424 69.5312C168.496 69.5312 170.987 67.0408 170.987 63.9688C170.987 60.8967 168.496 58.4062 165.424 58.4062C162.352 58.4062 159.862 60.8967 159.862 63.9688ZM145.955 69.5312C142.883 69.5312 140.393 67.0408 140.393 63.9688C140.393 60.8967 142.883 58.4062 145.955 58.4062C149.027 58.4062 151.518 60.8967 151.518 63.9688C151.518 67.0408 149.027 69.5312 145.955 69.5312ZM120.924 63.9688C120.924 67.0408 123.414 69.5312 126.487 69.5312C129.559 69.5312 132.049 67.0408 132.049 63.9688C132.049 60.8967 129.559 58.4062 126.487 58.4062C123.414 58.4062 120.924 60.8967 120.924 63.9688ZM107.018 69.5312C103.946 69.5312 101.455 67.0408 101.455 63.9688C101.455 60.8967 103.946 58.4062 107.018 58.4062C110.09 58.4062 112.58 60.8967 112.58 63.9688C112.58 67.0408 110.09 69.5312 107.018 69.5312ZM157.08 52.8438C154.008 52.8438 151.518 50.3533 151.518 47.2812C151.518 44.2092 154.008 41.7188 157.08 41.7188C160.152 41.7188 162.643 44.2092 162.643 47.2812C162.643 50.3533 160.152 52.8438 157.08 52.8438ZM132.049 47.2812C132.049 50.3533 134.539 52.8438 137.612 52.8438C140.684 52.8438 143.174 50.3533 143.174 47.2812C143.174 44.2092 140.684 41.7188 137.612 41.7188C134.539 41.7188 132.049 44.2092 132.049 47.2812ZM118.143 52.8438C115.071 52.8438 112.58 50.3533 112.58 47.2812C112.58 44.2092 115.071 41.7188 118.143 41.7188C121.215 41.7188 123.705 44.2092 123.705 47.2812C123.705 50.3533 121.215 52.8438 118.143 52.8438ZM151.518 80.6562C151.518 83.7283 154.008 86.2188 157.08 86.2188C160.152 86.2188 162.643 83.7283 162.643 80.6562C162.643 77.5842 160.152 75.0938 157.08 75.0938C154.008 75.0938 151.518 77.5842 151.518 80.6562ZM137.612 86.2188C134.539 86.2188 132.049 83.7283 132.049 80.6562C132.049 77.5842 134.539 75.0938 137.612 75.0938C140.684 75.0938 143.174 77.5842 143.174 80.6562C143.174 83.7283 140.684 86.2188 137.612 86.2188ZM112.58 80.6562C112.58 83.7283 115.071 86.2188 118.143 86.2188C121.215 86.2188 123.705 83.7283 123.705 80.6562C123.705 77.5842 121.215 75.0938 118.143 75.0938C115.071 75.0938 112.58 77.5842 112.58 80.6562ZM159.862 97.3438C159.862 100.416 162.352 102.906 165.424 102.906C168.496 102.906 170.987 100.416 170.987 97.3438C170.987 94.2717 168.496 91.7812 165.424 91.7812C162.352 91.7812 159.862 94.2717 159.862 97.3438ZM145.955 102.906C142.883 102.906 140.393 100.416 140.393 97.3438C140.393 94.2717 142.883 91.7812 145.955 91.7812C149.027 91.7812 151.518 94.2717 151.518 97.3438C151.518 100.416 149.027 102.906 145.955 102.906ZM120.924 97.3438C120.924 100.416 123.414 102.906 126.487 102.906C129.559 102.906 132.049 100.416 132.049 97.3438C132.049 94.2717 129.559 91.7812 126.487 91.7812C123.414 91.7812 120.924 94.2717 120.924 97.3438ZM107.018 102.906C103.946 102.906 101.455 100.416 101.455 97.3438C101.455 94.2717 103.946 91.7812 107.018 91.7812C110.09 91.7812 112.58 94.2717 112.58 97.3438C112.58 100.416 110.09 102.906 107.018 102.906ZM159.862 130.719C159.862 133.791 162.352 136.281 165.424 136.281C168.496 136.281 170.987 133.791 170.987 130.719C170.987 127.647 168.496 125.156 165.424 125.156C162.352 125.156 159.862 127.647 159.862 130.719ZM145.955 136.281C142.883 136.281 140.393 133.791 140.393 130.719C140.393 127.647 142.883 125.156 145.955 125.156C149.027 125.156 151.518 127.647 151.518 130.719C151.518 133.791 149.027 136.281 145.955 136.281ZM120.924 130.719C120.924 133.791 123.414 136.281 126.487 136.281C129.559 136.281 132.049 133.791 132.049 130.719C132.049 127.647 129.559 125.156 126.487 125.156C123.414 125.156 120.924 127.647 120.924 130.719ZM107.018 136.281C103.946 136.281 101.455 133.791 101.455 130.719C101.455 127.647 103.946 125.156 107.018 125.156C110.09 125.156 112.58 127.647 112.58 130.719C112.58 133.791 110.09 136.281 107.018 136.281ZM157.08 119.594C154.008 119.594 151.518 117.103 151.518 114.031C151.518 110.959 154.008 108.469 157.08 108.469C160.152 108.469 162.643 110.959 162.643 114.031C162.643 117.103 160.152 119.594 157.08 119.594ZM132.049 114.031C132.049 117.103 134.539 119.594 137.612 119.594C140.684 119.594 143.174 117.103 143.174 114.031C143.174 110.959 140.684 108.469 137.612 108.469C134.539 108.469 132.049 110.959 132.049 114.031ZM118.143 119.594C115.071 119.594 112.58 117.103 112.58 114.031C112.58 110.959 115.071 108.469 118.143 108.469C121.215 108.469 123.705 110.959 123.705 114.031C123.705 117.103 121.215 119.594 118.143 119.594ZM151.518 147.406C151.518 150.478 154.008 152.969 157.08 152.969C160.152 152.969 162.643 150.478 162.643 147.406C162.643 144.334 160.152 141.844 157.08 141.844C154.008 141.844 151.518 144.334 151.518 147.406ZM137.612 152.969C134.539 152.969 132.049 150.478 132.049 147.406C132.049 144.334 134.539 141.844 137.612 141.844C140.684 141.844 143.174 144.334 143.174 147.406C143.174 150.478 140.684 152.969 137.612 152.969ZM112.58 147.406C112.58 150.478 115.071 152.969 118.143 152.969C121.215 152.969 123.705 150.478 123.705 147.406C123.705 144.334 121.215 141.844 118.143 141.844C115.071 141.844 112.58 144.334 112.58 147.406ZM98.6741 152.969C95.602 152.969 93.1116 150.478 93.1116 147.406C93.1116 144.334 95.602 141.844 98.6741 141.844C101.746 141.844 104.237 144.334 104.237 147.406C104.237 150.478 101.746 152.969 98.6741 152.969ZM159.862 164.094C159.862 167.166 162.352 169.656 165.424 169.656C168.496 169.656 170.987 167.166 170.987 164.094C170.987 161.022 168.496 158.531 165.424 158.531C162.352 158.531 159.862 161.022 159.862 164.094ZM145.955 169.656C142.883 169.656 140.393 167.166 140.393 164.094C140.393 161.022 142.883 158.531 145.955 158.531C149.027 158.531 151.518 161.022 151.518 164.094C151.518 167.166 149.027 169.656 145.955 169.656ZM120.924 164.094C120.924 167.166 123.414 169.656 126.487 169.656C129.559 169.656 132.049 167.166 132.049 164.094C132.049 161.022 129.559 158.531 126.487 158.531C123.414 158.531 120.924 161.022 120.924 164.094ZM107.018 169.656C103.946 169.656 101.455 167.166 101.455 164.094C101.455 161.022 103.946 158.531 107.018 158.531C110.09 158.531 112.58 161.022 112.58 164.094C112.58 167.166 110.09 169.656 107.018 169.656ZM145.955 203.031C142.883 203.031 140.393 200.541 140.393 197.469C140.393 194.397 142.883 191.906 145.955 191.906C149.027 191.906 151.518 194.397 151.518 197.469C151.518 200.541 149.027 203.031 145.955 203.031ZM120.924 197.469C120.924 200.541 123.414 203.031 126.487 203.031C129.559 203.031 132.049 200.541 132.049 197.469C132.049 194.397 129.559 191.906 126.487 191.906C123.414 191.906 120.924 194.397 120.924 197.469ZM107.018 203.031C103.946 203.031 101.455 200.541 101.455 197.469C101.455 194.397 103.946 191.906 107.018 191.906C110.09 191.906 112.58 194.397 112.58 197.469C112.58 200.541 110.09 203.031 107.018 203.031ZM170.987 180.781C170.987 183.853 173.477 186.344 176.549 186.344C179.621 186.344 182.112 183.853 182.112 180.781C182.112 177.709 179.621 175.219 176.549 175.219C173.477 175.219 170.987 177.709 170.987 180.781ZM157.08 186.344C154.008 186.344 151.518 183.853 151.518 180.781C151.518 177.709 154.008 175.219 157.08 175.219C160.152 175.219 162.643 177.709 162.643 180.781C162.643 183.853 160.152 186.344 157.08 186.344ZM132.049 180.781C132.049 183.853 134.539 186.344 137.612 186.344C140.684 186.344 143.174 183.853 143.174 180.781C143.174 177.709 140.684 175.219 137.612 175.219C134.539 175.219 132.049 177.709 132.049 180.781ZM118.143 186.344C115.071 186.344 112.58 183.853 112.58 180.781C112.58 177.709 115.071 175.219 118.143 175.219C121.215 175.219 123.705 177.709 123.705 180.781C123.705 183.853 121.215 186.344 118.143 186.344ZM93.1116 180.781C93.1116 183.853 95.602 186.344 98.6741 186.344C101.746 186.344 104.237 183.853 104.237 180.781C104.237 177.709 101.746 175.219 98.6741 175.219C95.602 175.219 93.1116 177.709 93.1116 180.781ZM118.143 219.719C115.071 219.719 112.58 217.228 112.58 214.156C112.58 211.084 115.071 208.594 118.143 208.594C121.215 208.594 123.705 211.084 123.705 214.156C123.705 217.228 121.215 219.719 118.143 219.719ZM93.1116 214.156C93.1116 217.228 95.602 219.719 98.6741 219.719C101.746 219.719 104.237 217.228 104.237 214.156C104.237 211.084 101.746 208.594 98.6741 208.594C95.602 208.594 93.1116 211.084 93.1116 214.156ZM76.4241 186.344C73.352 186.344 70.8616 183.853 70.8616 180.781C70.8616 177.709 73.352 175.219 76.4241 175.219C79.4962 175.219 81.9866 177.709 81.9866 180.781C81.9866 183.853 79.4962 186.344 76.4241 186.344ZM87.5491 169.656C84.477 169.656 81.9866 167.166 81.9866 164.094C81.9866 161.022 84.477 158.531 87.5491 158.531C90.6212 158.531 93.1116 161.022 93.1116 164.094C93.1116 167.166 90.6212 169.656 87.5491 169.656ZM87.5491 203.031C84.477 203.031 81.9866 200.541 81.9866 197.469C81.9866 194.397 84.477 191.906 87.5491 191.906C90.6212 191.906 93.1116 194.397 93.1116 197.469C93.1116 200.541 90.6212 203.031 87.5491 203.031ZM62.5178 197.469C62.5178 200.541 65.0082 203.031 68.0803 203.031C71.1524 203.031 73.6428 200.541 73.6428 197.469C73.6428 194.397 71.1524 191.906 68.0803 191.906C65.0082 191.906 62.5178 194.397 62.5178 197.469ZM48.6116 203.031C45.5395 203.031 43.0491 200.541 43.0491 197.469C43.0491 194.397 45.5395 191.906 48.6116 191.906C51.6837 191.906 54.1741 194.397 54.1741 197.469C54.1741 200.541 51.6837 203.031 48.6116 203.031ZM79.2053 219.719C76.1332 219.719 73.6428 217.228 73.6428 214.156C73.6428 211.084 76.1332 208.594 79.2053 208.594C82.2774 208.594 84.7678 211.084 84.7678 214.156C84.7678 217.228 82.2774 219.719 79.2053 219.719ZM54.1741 214.156C54.1741 217.228 56.6645 219.719 59.7366 219.719C62.8087 219.719 65.2991 217.228 65.2991 214.156C65.2991 211.084 62.8087 208.594 59.7366 208.594C56.6645 208.594 54.1741 211.084 54.1741 214.156ZM40.2678 219.719C37.1957 219.719 34.7053 217.228 34.7053 214.156C34.7053 211.084 37.1957 208.594 40.2678 208.594C43.3399 208.594 45.8303 211.084 45.8303 214.156C45.8303 217.228 43.3399 219.719 40.2678 219.719ZM15.2366 214.156C15.2366 217.228 17.727 219.719 20.7991 219.719C23.8712 219.719 26.3616 217.228 26.3616 214.156C26.3616 211.084 23.8712 208.594 20.7991 208.594C17.727 208.594 15.2366 211.084 15.2366 214.156ZM79.2053 253.094C76.1332 253.094 73.6428 250.603 73.6428 247.531C73.6428 244.459 76.1332 241.969 79.2053 241.969C82.2774 241.969 84.7678 244.459 84.7678 247.531C84.7678 250.603 82.2774 253.094 79.2053 253.094ZM54.1741 247.531C54.1741 250.603 56.6645 253.094 59.7366 253.094C62.8087 253.094 65.2991 250.603 65.2991 247.531C65.2991 244.459 62.8087 241.969 59.7366 241.969C56.6645 241.969 54.1741 244.459 54.1741 247.531ZM40.2678 253.094C37.1957 253.094 34.7053 250.603 34.7053 247.531C34.7053 244.459 37.1957 241.969 40.2678 241.969C43.3399 241.969 45.8303 244.459 45.8303 247.531C45.8303 250.603 43.3399 253.094 40.2678 253.094ZM15.2366 247.531C15.2366 250.603 17.727 253.094 20.7991 253.094C23.8712 253.094 26.3616 250.603 26.3616 247.531C26.3616 244.459 23.8712 241.969 20.7991 241.969C17.727 241.969 15.2366 244.459 15.2366 247.531ZM90.3303 236.406C87.2582 236.406 84.7678 233.916 84.7678 230.844C84.7678 227.772 87.2582 225.281 90.3303 225.281C93.4024 225.281 95.8928 227.772 95.8928 230.844C95.8928 233.916 93.4024 236.406 90.3303 236.406ZM65.2991 230.844C65.2991 233.916 67.7895 236.406 70.8616 236.406C73.9337 236.406 76.4241 233.916 76.4241 230.844C76.4241 227.772 73.9337 225.281 70.8616 225.281C67.7895 225.281 65.2991 227.772 65.2991 230.844ZM51.3928 236.406C48.3207 236.406 45.8303 233.916 45.8303 230.844C45.8303 227.772 48.3207 225.281 51.3928 225.281C54.4649 225.281 56.9553 227.772 56.9553 230.844C56.9553 233.916 54.4649 236.406 51.3928 236.406ZM26.3616 230.844C26.3616 233.916 28.852 236.406 31.9241 236.406C34.9962 236.406 37.4866 233.916 37.4866 230.844C37.4866 227.772 34.9962 225.281 31.9241 225.281C28.852 225.281 26.3616 227.772 26.3616 230.844ZM12.4553 236.406C9.38324 236.406 6.89282 233.916 6.89282 230.844C6.89282 227.772 9.38324 225.281 12.4553 225.281C15.5274 225.281 18.0178 227.772 18.0178 230.844C18.0178 233.916 15.5274 236.406 12.4553 236.406Z" fill="#7BC6C6"/>
</svg>
