<svg width="474" height="416" viewBox="0 0 474 416" fill="none" xmlns="http://www.w3.org/2000/svg">
<path d="M0 246.338H412.616V491C412.616 504.255 401.871 515 388.616 515H24C10.7451 515 0 504.255 0 491V246.338Z" fill="#AED6D4"/>
<path d="M171.768 111.744C192.052 95.8495 220.564 95.8495 240.848 111.744L412.616 246.338H0L171.768 111.744Z" fill="#BAE3DE"/>
<path d="M342.566 54.9477L276.248 30.6916L270.308 46.9326C269.225 46.5366 268.294 48.2421 267.964 49.1443L239.253 127.643L233.808 142.53C231.035 150.109 221.144 154.778 216.545 156.164C191.206 165.31 138.679 184.46 131.285 187.894C123.891 191.327 119.403 199.404 118.083 203.013C116.345 210.561 117.715 228.351 137.099 239.123C141.397 241.512 145.946 243.203 150.53 244.354C166.617 248.394 183.134 245.791 190.772 243.41L243.255 225.779C250.253 223.428 262.015 223.433 267.022 223.73C273.382 224.522 287.93 222.784 295.244 209.501C302.557 196.217 302.899 175.985 302.832 167.776L308.277 152.889L336.988 74.3904C337.483 73.037 337.528 71.5187 336.625 71.1887L342.566 54.9477Z" fill="#7BC6C6"/>
<path fill-rule="evenodd" clip-rule="evenodd" d="M267.964 49.1443C268.294 48.2421 269.225 46.5366 270.308 46.9326L336.625 71.1887C337.528 71.5187 337.483 73.037 336.988 74.3904L308.277 152.889L302.832 167.776C302.899 175.985 302.557 196.217 295.244 209.501C287.93 222.784 273.382 224.522 267.022 223.73C262.015 223.433 250.253 223.428 243.255 225.779L190.772 243.41C183.134 245.791 166.617 248.394 150.53 244.354C145.946 243.203 141.397 241.512 137.099 239.123C117.715 228.351 116.345 210.561 118.082 203.013C119.403 199.404 123.891 191.327 131.285 187.894C138.679 184.46 191.206 165.31 216.545 156.164C221.144 154.778 231.035 150.109 233.808 142.53L239.253 127.643L267.964 49.1443Z" fill="#191E38"/>
<path d="M302.832 167.776C302.899 175.985 302.557 196.217 295.244 209.501C287.93 222.784 273.382 224.522 267.022 223.73C262.015 223.433 250.253 223.428 243.255 225.779C247.05 215.402 256.172 192.141 262.298 182.106C268.423 172.07 291.873 168.371 302.832 167.776Z" fill="#7BC6C6"/>
<path d="M137.099 239.123C117.715 228.351 116.345 210.561 118.082 203.013C119.403 199.404 123.891 191.327 131.285 187.894C134.564 190.116 142.397 197.789 147.494 210.702C152.592 223.614 151.642 238.517 150.53 244.354C145.946 243.203 141.397 241.512 137.099 239.123Z" fill="#7BC6C6"/>
<path d="M462.199 98.7044L370.991 65.3446L362.822 87.6811C361.333 87.1366 360.052 89.4821 359.598 90.7229L320.111 198.683L312.622 219.158C308.81 229.582 295.206 236.002 288.881 237.91C254.031 250.488 181.79 276.825 171.621 281.547C161.452 286.269 155.279 297.377 153.463 302.341C151.073 312.722 152.958 337.189 179.617 352.004C185.529 355.29 191.785 357.615 198.09 359.198C220.214 364.755 242.93 361.175 253.435 357.9L325.616 333.651C335.24 330.418 351.417 330.426 358.302 330.834C367.049 331.922 387.058 329.533 397.116 311.264C407.175 292.995 407.644 265.169 407.552 253.88L415.041 233.404L454.529 125.444C455.209 123.583 455.27 121.495 454.029 121.041L462.199 98.7044Z" fill="#FF82BE"/>
<path fill-rule="evenodd" clip-rule="evenodd" d="M359.598 90.7229C360.052 89.4821 361.333 87.1366 362.822 87.6811L454.029 121.041C455.27 121.495 455.209 123.583 454.529 125.444L415.041 233.404L407.552 253.88C407.644 265.169 407.175 292.995 397.116 311.264C387.058 329.533 367.049 331.922 358.302 330.834C351.417 330.426 335.24 330.418 325.616 333.651L253.435 357.9C242.93 361.175 220.214 364.755 198.09 359.198C191.785 357.615 185.529 355.29 179.617 352.004C152.958 337.189 151.073 312.722 153.464 302.341C155.279 297.377 161.452 286.269 171.621 281.547C181.79 276.825 254.031 250.488 288.881 237.91C295.206 236.002 308.81 229.582 312.622 219.158L320.111 198.683L359.598 90.7229Z" fill="#FFDFE8"/>
<path d="M407.552 253.88C407.644 265.169 407.175 292.995 397.116 311.264C387.058 329.533 367.049 331.922 358.302 330.834C351.417 330.426 335.24 330.418 325.616 333.651C330.835 319.381 343.381 287.389 351.805 273.587C360.23 259.785 392.48 254.698 407.552 253.88Z" fill="#FF82BE"/>
<path d="M179.617 352.004C152.958 337.189 151.073 312.722 153.463 302.341C155.279 297.377 161.452 286.269 171.621 281.547C176.131 284.604 186.903 295.156 193.914 312.915C200.925 330.675 199.619 351.17 198.09 359.198C191.785 357.615 185.529 355.29 179.617 352.004Z" fill="#FF82BE"/>
<path d="M0 246.338L192.774 377.971C200.936 383.544 211.68 383.544 219.842 377.971L412.616 246.338V491C412.616 504.255 401.871 515 388.616 515H24C10.7451 515 0 504.255 0 491V246.338Z" fill="#BAE3DE"/>
</svg>
