<svg width="369" height="342" viewBox="0 0 369 342" fill="none" xmlns="http://www.w3.org/2000/svg">
<path d="M174.854 0H97.6666V18.9031C96.4066 18.9031 96.0912 21.0035 96.091 22.0537V113.419V130.747C96.091 139.568 87.6896 148.075 83.4889 151.225C60.9101 170.128 14.1774 209.51 7.87631 215.811C1.57527 222.112 0 232.089 0 236.289C1.05019 244.691 9.13652 262.439 33.0805 266.219C38.3904 267.058 43.695 267.085 48.8331 266.546C66.8642 264.653 82.843 255.779 89.7899 250.467L137.048 212.66C143.349 207.619 155.426 203.209 160.677 201.633C167.503 200.058 181.786 192.812 184.306 176.429C186.826 160.047 179.58 139.148 176.429 130.747V113.419V22.0537C176.429 20.4784 175.905 18.9031 174.854 18.9031V0Z" fill="#7BC6C6"/>
<path fill-rule="evenodd" clip-rule="evenodd" d="M96.091 22.0537C96.0912 21.0035 96.4066 18.9031 97.6666 18.9031H174.854C175.905 18.9031 176.429 20.4784 176.429 22.0537V113.419V130.747C179.58 139.148 186.826 160.047 184.306 176.429C181.786 192.812 167.503 200.058 160.677 201.633C155.426 203.209 143.349 207.619 137.048 212.66L89.7899 250.467C82.843 255.779 66.8642 264.653 48.8331 266.546C43.695 267.085 38.3904 267.058 33.0805 266.219C9.13652 262.439 1.05018 244.691 4.92639e-06 236.289C4.92639e-06 232.089 1.57527 222.112 7.87631 215.811C14.1774 209.51 60.9101 170.128 83.4889 151.225C87.6896 148.075 96.091 139.568 96.091 130.747V113.419V22.0537Z" fill="#191E38"/>
<path d="M176.429 130.747C179.58 139.148 186.826 160.047 184.306 176.429C181.786 192.812 167.503 200.058 160.677 201.633C155.426 203.209 143.349 207.619 137.048 212.66C137.048 200.583 137.678 173.279 140.198 160.677C142.719 148.075 165.402 135.473 176.429 130.747Z" fill="#7BC6C6"/>
<path d="M33.0805 266.219C9.13652 262.439 1.05018 244.691 4.92639e-06 236.289C4.92639e-06 232.089 1.57527 222.112 7.87631 215.811C12.077 216.861 22.9988 221.797 33.0805 233.139C43.1622 244.481 47.7829 260.136 48.8331 266.546C43.695 267.085 38.3904 267.058 33.0805 266.219Z" fill="#7BC6C6"/>
<path d="M355.848 0H257.032V24.1997C255.419 24.1997 255.015 26.8885 255.015 28.233V145.198V167.381C255.015 178.674 244.26 189.564 238.882 193.597C209.977 217.797 150.15 268.213 142.083 276.28C134.017 284.346 132 297.118 132 302.496C133.344 313.251 143.697 335.972 174.349 340.812C181.147 341.886 187.938 341.921 194.516 341.23C217.599 338.807 238.055 327.447 246.949 320.646L307.448 272.246C315.514 265.793 330.975 260.147 337.697 258.13C346.436 256.113 364.721 246.837 367.947 225.864C371.174 204.891 361.897 178.137 357.864 167.381V145.198V28.233C357.864 26.2163 357.192 24.1997 355.848 24.1997V0Z" fill="#7BC6C6"/>
<path fill-rule="evenodd" clip-rule="evenodd" d="M255.015 28.233C255.015 26.8885 255.419 24.1997 257.032 24.1997H355.848C357.192 24.1997 357.864 26.2163 357.864 28.233V145.198V167.381C361.897 178.137 371.174 204.891 367.947 225.864C364.721 246.837 346.436 256.113 337.697 258.13C330.975 260.147 315.514 265.793 307.448 272.246L246.949 320.646C238.055 327.447 217.599 338.807 194.516 341.23C187.938 341.921 181.147 341.886 174.349 340.812C143.697 335.972 133.344 313.251 132 302.496C132 297.118 134.017 284.346 142.083 276.28C150.15 268.213 209.977 217.797 238.882 193.597C244.26 189.564 255.015 178.674 255.015 167.381V145.198V28.233Z" fill="#191E38"/>
<path d="M357.864 167.381C361.897 178.137 371.174 204.891 367.947 225.864C364.721 246.837 346.436 256.113 337.697 258.13C330.975 260.147 315.514 265.793 307.448 272.246C307.448 256.786 308.254 221.83 311.481 205.697C314.708 189.564 343.747 173.431 357.864 167.381Z" fill="#7BC6C6"/>
<path d="M174.349 340.812C143.697 335.972 133.344 313.251 132 302.496C132 297.118 134.017 284.346 142.083 276.28C147.461 277.624 161.443 283.943 174.349 298.463C187.256 312.983 193.171 333.024 194.516 341.23C187.938 341.921 181.147 341.886 174.349 340.812Z" fill="#7BC6C6"/>
<path fill-rule="evenodd" clip-rule="evenodd" d="M367.947 225.864C371.174 204.891 361.897 178.137 357.864 167.381C343.747 173.431 314.708 189.564 311.481 205.697C308.254 221.83 307.448 256.786 307.448 272.246C315.514 265.793 330.975 260.147 337.697 258.13C346.436 256.113 364.721 246.837 367.947 225.864ZM194.516 341.23C187.938 341.921 181.147 341.886 174.349 340.812C143.697 335.972 133.344 313.251 132 302.496C132 297.118 134.017 284.346 142.083 276.28C147.461 277.624 161.443 283.943 174.349 298.463C187.256 312.983 193.171 333.024 194.516 341.23Z" fill="#7BC6C6"/>
</svg>
