<svg width="26" height="27" viewBox="0 0 26 27" fill="none" xmlns="http://www.w3.org/2000/svg">
<path d="M12.9475 13.5C14.9008 13.5 16.7742 12.7888 18.1554 11.523C19.5366 10.2571 20.3126 8.54021 20.3126 6.75C20.3126 4.95979 19.5366 3.2429 18.1554 1.97703C16.7742 0.711159 14.9008 0 12.9475 0C10.9941 0 9.1208 0.711159 7.73958 1.97703C6.35836 3.2429 5.5824 4.95979 5.5824 6.75C5.5824 8.54021 6.35836 10.2571 7.73958 11.523C9.1208 12.7888 10.9941 13.5 12.9475 13.5ZM10.3179 16.0312C4.65026 16.0312 0.0585938 20.2395 0.0585938 25.4338C0.0585938 26.2986 0.823871 27 1.76752 27H24.1274C25.0711 27 25.8364 26.2986 25.8364 25.4338C25.8364 20.2395 21.2447 16.0312 15.577 16.0312H10.3179Z" fill="#4B7F76"/>
</svg>
